<?xml version="1.0" encoding="utf-8"?>
<!-- Generator: Adobe Illustrator 22.0.1, SVG Export Plug-In . SVG Version: 6.00 Build 0)  -->
<svg version="1.1"
	 id="Layer_1" xmlns:cc="http://creativecommons.org/ns#" xmlns:dc="http://purl.org/dc/elements/1.1/" xmlns:inkscape="http://www.inkscape.org/namespaces/inkscape" xmlns:rdf="http://www.w3.org/1999/02/22-rdf-syntax-ns#" xmlns:sodipodi="http://sodipodi.sourceforge.net/DTD/sodipodi-0.dtd" xmlns:svg="http://www.w3.org/2000/svg"
	 xmlns="http://www.w3.org/2000/svg" xmlns:xlink="http://www.w3.org/1999/xlink" x="0px" y="0px" viewBox="0 0 100 125"
	 style="enable-background:new 0 0 100 125;" xml:space="preserve">
<style type="text/css">
	.st0{fill:#F6B145;}
</style>
<g transform="translate(0,-952.36218)">
	<path class="st0" d="M3.3,1015.1l1.4,1.4l7.8,7.8l1.4,1.4l1.4-1.4c3.5-3.5,9.2-3.5,12.7,0s3.5,9.2,0,12.7l-1.4,1.4l1.4,1.4l7.8,7.8
		l1.4,1.4l1.4-1.4L95.3,991l1.4-1.4l-1.4-1.4l-7.8-7.8l-1.4-1.4l-1.4,1.4c-3.5,3.5-9.2,3.5-12.7,0s-3.5-9.2,0-12.7l1.4-1.4l-1.4-1.4
		l-7.8-7.8l-1.4-1.4l-1.4,1.4l-56.6,56.6C4.7,1013.7,3.3,1015.1,3.3,1015.1z M9,1015.1L45.1,979l4.2,4.2l2.8-2.8l-4.2-4.2l14.8-14.8
		l5.1,5.1c-3.7,5.1-3.3,12.3,1.3,16.8c4.6,4.6,11.7,5,16.8,1.3l5.1,5.1l-14.8,14.8l-4.2-4.2l-2.8,2.8l4.2,4.2l-36.1,36.1l-5.1-5.1
		c3.7-5.1,3.3-12.2-1.3-16.8c-4.6-4.6-11.8-5-16.8-1.3L9,1015.1L9,1015.1z M52.1,986.1l5.7,5.7l2.8-2.8l-5.7-5.7L52.1,986.1z
		 M60.6,994.6l5.7,5.7l2.8-2.8l-5.7-5.7L60.6,994.6z"/>
</g>
</svg>
